<svg width="32" height="32" viewBox="0 0 32 32" fill="currentColor" xmlns="http://www.w3.org/2000/svg">
<path d="M7.80002 22.8C8.93335 21.9334 10.2 21.25 11.6 20.75C13 20.25 14.4667 20 16 20C17.5334 20 19 20.25 20.4 20.75C21.8 21.25 23.0667 21.9334 24.2 22.8C24.9778 21.8889 25.5834 20.8556 26.0167 19.7C26.45 18.5445 26.6667 17.3111 26.6667 16C26.6667 13.0445 25.6278 10.5278 23.55 8.45002C21.4722 6.37224 18.9556 5.33335 16 5.33335C13.0445 5.33335 10.5278 6.37224 8.45002 8.45002C6.37224 10.5278 5.33335 13.0445 5.33335 16C5.33335 17.3111 5.55002 18.5445 5.98335 19.7C6.41669 20.8556 7.02224 21.8889 7.80002 22.8ZM16 17.3334C14.6889 17.3334 13.5834 16.8834 12.6834 15.9834C11.7834 15.0834 11.3334 13.9778 11.3334 12.6667C11.3334 11.3556 11.7834 10.25 12.6834 9.35002C13.5834 8.45002 14.6889 8.00002 16 8.00002C17.3111 8.00002 18.4167 8.45002 19.3167 9.35002C20.2167 10.25 20.6667 11.3556 20.6667 12.6667C20.6667 13.9778 20.2167 15.0834 19.3167 15.9834C18.4167 16.8834 17.3111 17.3334 16 17.3334ZM16 29.3334C14.1556 29.3334 12.4222 28.9834 10.8 28.2834C9.1778 27.5834 7.76669 26.6334 6.56669 25.4334C5.36669 24.2334 4.41669 22.8222 3.71669 21.2C3.01669 19.5778 2.66669 17.8445 2.66669 16C2.66669 14.1556 3.01669 12.4222 3.71669 10.8C4.41669 9.1778 5.36669 7.76669 6.56669 6.56669C7.76669 5.36669 9.1778 4.41669 10.8 3.71669C12.4222 3.01669 14.1556 2.66669 16 2.66669C17.8445 2.66669 19.5778 3.01669 21.2 3.71669C22.8222 4.41669 24.2334 5.36669 25.4334 6.56669C26.6334 7.76669 27.5834 9.1778 28.2834 10.8C28.9834 12.4222 29.3334 14.1556 29.3334 16C29.3334 17.8445 28.9834 19.5778 28.2834 21.2C27.5834 22.8222 26.6334 24.2334 25.4334 25.4334C24.2334 26.6334 22.8222 27.5834 21.2 28.2834C19.5778 28.9834 17.8445 29.3334 16 29.3334Z" fill="#1D1B20"/>
</svg>
