<svg width="32" height="32" viewBox="0 0 32 32" fill="currentColor" xmlns="http://www.w3.org/2000/svg">
<path d="M21.3333 5.33335H24C24.7072 5.33335 25.3855 5.6143 25.8856 6.1144C26.3857 6.6145 26.6666 7.29278 26.6666 8.00002V26.6667C26.6666 27.3739 26.3857 28.0522 25.8856 28.5523C25.3855 29.0524 24.7072 29.3334 24 29.3334H7.99998C7.29274 29.3334 6.61446 29.0524 6.11436 28.5523C5.61426 28.0522 5.33331 27.3739 5.33331 26.6667V8.00002C5.33331 7.29278 5.61426 6.6145 6.11436 6.1144C6.61446 5.6143 7.29274 5.33335 7.99998 5.33335H10.6666M12 2.66669H20C20.7364 2.66669 21.3333 3.26364 21.3333 4.00002V6.66669C21.3333 7.40307 20.7364 8.00002 20 8.00002H12C11.2636 8.00002 10.6666 7.40307 10.6666 6.66669V4.00002C10.6666 3.26364 11.2636 2.66669 12 2.66669Z" stroke="#1E1E1E" stroke-width="4" stroke-linecap="round" stroke-linejoin="round"/>
</svg>
