<svg width="32" height="32" viewBox="0 0 32 32" fill="currentColor" xmlns="http://www.w3.org/2000/svg">
<path d="M4 8.00002L8 2.66669H24L28 8.00002M4 8.00002V26.6667C4 27.3739 4.28095 28.0522 4.78105 28.5523C5.28115 29.0524 5.95942 29.3334 6.66667 29.3334H25.3333C26.0406 29.3334 26.7189 29.0524 27.219 28.5523C27.719 28.0522 28 27.3739 28 26.6667V8.00002M4 8.00002H28M21.3333 13.3334C21.3333 14.7478 20.7714 16.1044 19.7712 17.1046C18.771 18.1048 17.4145 18.6667 16 18.6667C14.5855 18.6667 13.229 18.1048 12.2288 17.1046C11.2286 16.1044 10.6667 14.7478 10.6667 13.3334" stroke="#1E1E1E" stroke-width="3" stroke-linecap="round" stroke-linejoin="round"/>
</svg>
